<?xml version="1.0" standalone="no"?><!DOCTYPE svg PUBLIC "-//W3C//DTD SVG 1.1//EN" "http://www.w3.org/Graphics/SVG/1.1/DTD/svg11.dtd"><svg class="icon" width="64px" height="63.81px" viewBox="0 0 1027 1024" version="1.1" xmlns="http://www.w3.org/2000/svg"><path fill="#cdcdcd" d="M990.808309 16.572508 255.353405 16.572508c-11.019252 0-19.952354 8.933103-19.952354 19.952354l0 0.55908 0 68.689714 0 205.826637 89.19709 0L324.598141 105.773657 856.45055 105.773657 681.396645 206.956973l0 572.99298L324.597126 779.949952 324.597126 558.681143l-89.19709 0 0 221.26881 0 53.126796 0 12.321066 0 7.766239c1.704636 8.635806 8.979777 15.256489 17.9281 15.987047l3.280409 0 424.787086 0 0 123.10209 0 3.41333c0.867538 10.218682 9.423185 18.245689 19.866108 18.245689 2.265745 0 4.434082-0.395719 6.464425-1.091779l4.001835-1.897422 286.04395-135.614927 4.051554-1.920759c4.447273-2.757857 7.724638-7.2031 8.936147-12.452972l0-8.994997 0-71.989402L1010.759648 105.773657 1010.759648 36.524863C1010.760663 25.505611 1001.827561 16.572508 990.808309 16.572508zM394.897112 582.149308l0 5.174787c1.271374 9.794552 9.626118 17.365976 19.765656 17.365976 3.29157 0 6.388325-0.810717 9.124874-2.222114l6.160026-4.916047 164.914367-131.605989 5.798805-4.627883c3.016596-3.495518 4.852124-8.038169 4.852124-13.017125 0-4.599472-1.571715-8.823519-4.186504-12.198292l-6.289903-5.363514L429.297268 289.416693l-3.676128-3.135312c-3.146473-2.072959-6.907833-3.287512-10.957357-3.287512-10.140553 0-18.495297 7.571423-19.765656 17.365976l0 5.174787 0 98.721741L22.895895 404.256373l-1.82741 0c-10.592078 0.480951-19.039157 9.195901-19.039157 19.906695l0 49.624176c0 9.909209 7.231511 18.10871 16.700356 19.66419l6.505011 0 369.662416 0L394.897112 582.149308z" /></svg>