<?xml version="1.0" standalone="no"?><!DOCTYPE svg PUBLIC "-//W3C//DTD SVG 1.1//EN" "http://www.w3.org/Graphics/SVG/1.1/DTD/svg11.dtd"><svg class="icon" width="64px" height="64.00px" viewBox="0 0 1024 1024" version="1.1" xmlns="http://www.w3.org/2000/svg"><path fill="#cdcdcd" d="M839.424 820.992c-9.216 0-17.152-6.144-19.456-14.848-2.304-8.704 1.28-18.176 9.216-22.784 46.336-27.136 84.992-65.792 112.128-111.872 27.904-47.872 42.752-102.144 42.752-157.696 0-55.04-14.592-109.056-41.984-156.416-26.624-46.08-64.768-84.48-110.592-111.872-9.472-5.632-12.8-18.176-6.912-27.648 5.632-9.728 18.176-12.8 27.648-6.912 51.712 30.976 94.464 74.24 124.928 126.208 30.976 53.76 47.36 114.688 47.36 176.64 0 62.72-16.64 124.16-48.128 178.176-30.72 52.224-74.24 95.744-126.72 126.464-3.072 1.792-6.656 2.56-10.24 2.56z m-106.752-130.816c-9.216 0-17.152-6.144-19.456-14.848-2.304-8.704 1.28-18.176 9.472-22.784 23.808-13.824 43.52-33.792 57.6-57.6 14.336-24.576 22.016-52.48 21.76-80.896 0-28.16-7.424-56.064-21.504-80.128-13.824-23.552-33.28-43.264-56.576-57.344-9.472-5.888-12.288-18.176-6.656-27.648 5.632-9.472 17.92-12.8 27.392-7.168 29.44 17.408 53.76 42.24 70.912 71.68 17.664 30.464 26.88 65.28 26.88 100.608 0 35.584-9.472 70.4-27.392 101.376a201.7792 201.7792 0 0 1-71.936 71.936c-3.328 1.792-6.912 2.816-10.496 2.816zM254.208 755.456c-2.048-1.28-52.992-33.792-110.08-33.024h-0.256C71.936 722.432 11.008 668.416 2.048 596.48v-0.512l-1.536-16.128v-130.56l1.792-16.64c8.96-71.68 69.888-125.952 141.824-125.952h1.024c0.512 0 65.536 3.072 109.568-33.024l0.768-0.512L496.64 92.672c9.728-7.424 20.224-13.824 31.232-18.944 26.112-12.288 50.432-13.824 69.888-5.12 9.984 4.352 20.224 10.496 28.16 23.296 7.936 12.544 12.288 29.952 13.824 54.272v736.256c-0.768 32-4.608 66.816-41.984 79.616-7.168 2.304-14.592 3.328-22.272 3.328-36.608 0-72.96-24.832-78.08-28.416L458.24 909.568l-204.032-154.112z m220.16 105.472l37.376 26.112c9.728 6.912 42.24 25.344 60.928 18.944 6.656-2.304 13.312-4.352 14.08-40.192V163.84c-2.048-33.536-9.216-36.864-17.408-40.448-17.664-7.936-47.616 11.008-56.832 18.176l-0.512 0.256-230.4 172.544c-51.968 42.24-122.624 40.448-130.56 40.192-49.152 0.256-90.624 37.376-96.768 86.272l-1.28 13.312v121.088l1.28 13.312c6.144 49.152 47.872 86.272 97.024 86.272h2.304c66.816 0 122.624 36.608 124.928 38.144l195.84 147.968z m0 0"  /></svg>