<?xml version="1.0" standalone="no"?>
<!DOCTYPE svg PUBLIC "-//W3C//DTD SVG 1.1//EN" "http://www.w3.org/Graphics/SVG/1.1/DTD/svg11.dtd" >
<!--
2013-9-30: Created.
-->
<svg>
<metadata>
Created by iconfont
</metadata>
<defs>

<font id="iconfont" horiz-adv-x="1024" >
  <font-face
    font-family="iconfont"
    font-weight="500"
    font-stretch="normal"
    units-per-em="1024"
    ascent="896"
    descent="-128"
  />
    <missing-glyph />
    
    <glyph glyph-name="shijian" unicode="&#58893;" d="M673.153 282.44h-140.566v237.99c0 25.221-20.437 45.659-45.658 45.659-25.222 0-45.658-20.438-45.658-45.659v-278.089c-0.221-1.824-0.349-3.677-0.349-5.561 0-25.222 20.437-45.684 45.658-45.684h186.574c25.222 0 45.683 20.462 45.683 45.684s-20.462 45.66-45.684 45.66zM644.441 780.675c-272.307 72.973-552.192-88.627-625.142-360.91-72.95-272.283 88.626-552.169 360.91-625.144 272.308-72.949 552.193 88.652 625.143 360.935 72.949 272.307-88.626 552.167-360.911 625.118zM896.582 184.701c-56.885-212.218-275.011-338.142-487.227-281.285s-338.169 275.011-281.285 487.203c56.858 212.218 275.011 338.142 487.227 281.31 212.22-56.883 338.142-275.011 281.285-487.228z"  horiz-adv-x="1024" />

    
    <glyph glyph-name="unie62c" unicode="&#58895;" d="M-52.89 852.89v0 0zM512 781.183q-60.69 0-116.967-18.747t-101.503-52.958-79.438-79.438-52.958-102.069-18.747-116.402q0-57.372 40.284-143.977t88.829-159.969 111.989-155.027 88.829-110.895 39.718-45.791q7.732 8.827 20.972 23.725t51.865 61.785 73.365 92.677 77.248 108.67 73.365 117.498 51.865 111.989 20.972 99.314q0 100.409-49.641 185.355t-134.621 134.621-185.355 49.641zM512 257.107q-37.53 0-71.707 14.899t-59.031 39.718-39.154 59.031-14.334 71.707q0 49.641 24.29 92.112t67.293 67.293 92.677 24.819q76.118 0 130.207-54.052t54.052-130.736-54.052-130.736-130.207-54.052z"  horiz-adv-x="1024" />

    
    <glyph glyph-name="denglu" unicode="&#59176;" d="M990.808309 879.427492 255.353405 879.427492c-11.019252 0-19.952354-8.933103-19.952354-19.952354l0-0.55908 0-68.689714 0-205.826637 89.19709 0L324.598141 790.226343 856.45055 790.226343 681.396645 689.043027l0-572.99298L324.597126 116.050048 324.597126 337.318857l-89.19709 0 0-221.26881 0-53.126796 0-12.321066 0-7.766239c1.704636-8.635806 8.979777-15.256489 17.9281-15.987047l3.280409 0 424.787086 0 0-123.10209 0-3.41333c0.867538-10.218682 9.423185-18.245689 19.866108-18.245689 2.265745 0 4.434082 0.395719 6.464425 1.091779l4.001835 1.897422 286.04395 135.614927 4.051554 1.920759c4.447273 2.757857 7.724638 7.2031 8.936147 12.452972l0 8.994997 0 71.989402L1010.759648 790.226343 1010.759648 859.475137C1010.760663 870.494389 1001.827561 879.427492 990.808309 879.427492zM394.897112 313.850692l0-5.174787c1.271374-9.794552 9.626118-17.365976 19.765656-17.365976 3.29157 0 6.388325 0.810717 9.124874 2.222114l6.160026 4.916047 164.914367 131.605989 5.798805 4.627883c3.016596 3.495518 4.852124 8.038169 4.852124 13.017125 0 4.599472-1.571715 8.823519-4.186504 12.198292l-6.289903 5.363514L429.297268 606.583307l-3.676128 3.135312c-3.146473 2.072959-6.907833 3.287512-10.957357 3.287512-10.140553 0-18.495297-7.571423-19.765656-17.365976l0-5.174787 0-98.721741L22.895895 491.743627l-1.82741 0c-10.592078-0.480951-19.039157-9.195901-19.039157-19.906695l0-49.624176c0-9.909209 7.231511-18.10871 16.700356-19.66419l6.505011 0 369.662416 0L394.897112 313.850692z"  horiz-adv-x="1027" />

    
    <glyph glyph-name="gif" unicode="&#58957;" d="M512.943488 832.775027c-247.526513 0-448.185602-200.659089-448.185602-448.185602s200.659089-448.185602 448.185602-448.185602S961.130114 137.062911 961.130114 384.589424 760.470001 832.775027 512.943488 832.775027zM455.243345 222.539678l-36.183084 0-8.591679 37.990243c-15.081487-17.185404-30.156834-29.101805-45.228087-35.729759-15.081487-6.627954-32.414247-9.949606-52.010561-9.949606-24.12649 0-45.759183 4.453429-64.901149 13.341866-19.151176 8.891508-35.355229 21.032012-48.621371 36.407188-13.271258 15.379269-23.449062 33.31271-30.527271 53.822836-7.088442 20.500916-10.628058 42.357713-10.628058 65.579601 0 22.908756 3.539616 44.618197 10.628058 65.125253 7.079232 20.500916 17.256012 38.443567 30.527271 53.822836 13.265118 15.376199 29.469172 27.589358 48.621371 36.634362 19.141966 9.045003 40.774659 13.56597 64.901149 13.56597 17.483186 0 34.143635-2.337231 49.973158-7.008624 15.829524-4.677533 29.92352-11.612479 42.290175-20.804838 12.357446-9.201569 22.610974-20.73423 30.754444-34.601052 8.140401-13.869892 13.262048-29.849842 15.376199-47.939849l-55.178717 0c-1.512447 10.55131-4.748141 19.823488-9.723455 27.816532-4.975315 7.983835-11.234879 14.697747-18.768459 20.123316-7.541767 5.428639-15.986089 9.499351-25.328875 12.213159-9.348925 2.711761-19.151176 4.069689-29.395494 4.069689-17.188474 0-32.042787-3.469008-44.550659-10.403954-12.514012-6.938016-22.690792-16.210193-30.527271-27.813462-7.845689-11.612479-13.645788-24.803919-17.412578-39.575344-3.776-14.774495-5.652743-29.849842-5.652743-45.225017 0-15.379269 1.876744-30.456662 5.652743-45.229111 3.76679-14.774495 9.56689-27.970028 17.412578-39.572274 7.836479-11.612479 18.013259-20.884656 30.527271-27.816532 12.507872-6.938016 27.362184-10.400884 44.550659-10.400884 14.470573-0.303922 27.282367 1.583055 38.440497 5.652743 11.151991 4.069689 20.580734 9.949606 28.266787 17.639752 7.689123 7.686053 13.492292 17.108656 17.412578 28.266787 3.917216 11.148921 6.030343 23.515576 6.333242 37.08564L317.750901 349.627145l0 42.965557 137.492444 0L455.243345 222.539678zM573.280692 222.539678l-56.534598 0 0 322.924737 56.534598 0L573.280692 222.539678zM845.097424 412.04166l0-46.130643L699.013301 365.911016l0-143.372362-56.534598 0 0 322.924737 222.968188 0 0-48.847521L699.013301 496.61587l0-84.574211L845.097424 412.04166z"  horiz-adv-x="1024" />

    
    <glyph glyph-name="xihuan" unicode="&#58939;" d="M1005.670539 685.263391c-24.435529 68.365041-71.364351 121.79595-132.107807 150.510946-40.806381 19.34151-86.677105 29.526477-132.542712 29.526477-93.552699 0-181.041286-41.774429-229.53372-108.017132C462.866976 822.870446 375.971907 864.082056 282.986119 864.082056c-45.8697 0-91.613534-10.217712-132.451638-29.433356-60.802808-28.713972-107.733677-82.145905-132.139529-150.448524C-9.664104 605.868133-5.320169 514.380466 30.018687 439.482639c77.926814-165.19539 441.098183-511.087211 456.596156-524.648065 7.124258-6.311753 15.998369-9.404184 24.997324-9.404184 8.874111 0 17.748223 3.092431 24.994254 9.404184 15.435551 13.623275 379.451148 360.765577 457.314517 525.960966C1029.293563 515.536802 1033.668197 606.962048 1005.670539 685.263391L1005.670539 685.263391zM924.932704 436.358485c-62.990636-120.982422-383.449205-441.127859-396.946614-452.938859-6.374174-5.468548-8.998955-8.998955-16.372899-8.998955-7.810896 0-11.623735 2.99931-15.622816 6.999414C483.303424-5.893988 173.032892 302.377004 102.041024 440.358589c-32.900318 63.930031-49.992601 142.981459-29.995151 205.972095C123.412774 808.184979 271.487228 800.216493 311.607994 800.248216c71.396073 0.062422 146.760528-66.989717 200.378703-119.921253 12.373819 17.936511 103.984283 113.986077 200.411449 120.985492 54.555523 3.968381 194.972577-5.188162 239.531422-151.98246C968.927707 593.338772 964.80276 512.912022 924.932704 436.358485L924.932704 436.358485z"  horiz-adv-x="1024" />

    
    <glyph glyph-name="weibiaoti10" unicode="&#58973;" d="M512.007225 671.995936c-170.423425 0-315.927806-102.4289-374.919975-247.059056 58.984943-144.630156 204.49655-247.059056 374.919975-247.059056 170.408975 0 315.935031 102.4289 374.91275 247.059056C827.935031 569.567036 682.408975 671.995936 512.007225 671.995936zM512.007225 260.235659c-94.055119 0-170.423425 73.796204-170.423425 164.701221 0 90.905017 76.368306 164.722896 170.423425 164.722896 94.069569 0 170.408975-73.810654 170.408975-164.722896C682.408975 334.024638 606.069569 260.235659 512.007225 260.235659zM512.007225 523.760502c-56.579016 0-102.2555-44.144782-102.2555-98.823622 0-54.69329 45.676483-98.823622 102.2555-98.823622 56.579016 0 102.2555 44.130332 102.2555 98.823622C614.262725 479.61572 568.586241 523.760502 512.007225 523.760502z"  horiz-adv-x="1024" />

    
    <glyph glyph-name="tougao2" unicode="&#59013;" d="M968.988594 32.793126l-336.787466 1.417279L989.509976 384.769526c20.888749 20.888749 20.888749 54.885028 0 75.794244L651.519102 798.536224c-20.889773 20.907169-54.886051 20.888749-75.774801 0L46.859749 269.690558c-20.869307-20.908192-20.888749-54.904471 0-75.792197l163.540703-163.489538-155.391093 2.384303c-21.919219 0-39.675628-17.758456-39.675628-39.674605l0 2.986007c0-21.917172 17.757432-39.674605 39.675628-39.674605l913.979234 0c21.901823 0 39.676651 17.758456 39.676651 39.674605l0-2.986007C1008.665245 15.03467 990.890416 32.793126 968.988594 32.793126L968.988594 32.793126zM311.136761-4.293537l-59.884902 59.888995 0 0L79.904353 226.923522c-2.664689 2.680039-2.703575 7.039323 0 9.742898l528.84669 528.84362c2.702552 2.702552 7.05672 2.664689 9.741875 0l337.970408-337.990874c2.685155-2.705622 2.685155-7.020904 0.019443-9.704013l-362.224812-362.219695-59.882855-59.884902L311.136761-4.289444 311.136761-4.293537 311.136761-4.293537zM615.65529 708.485279c-13.944594 1.65264-26.917046-8.227382-28.687366-22.289656l-48.526203-385.366881-380.740514-42.943045c-14.101159-1.595334-24.233937-14.296611-22.639626-28.396747 1.478677-13.124925 12.603039-22.814612 25.497721-22.814612 0.953721 0 1.925862 0.037862 2.899026 0.155543l400.829038 45.201481c11.80486 1.323135 21.141506 10.56052 22.61916 22.309098l51.034327 405.438009C639.715265 693.859163 629.737006 706.714959 615.65529 708.485279L615.65529 708.485279z"  horiz-adv-x="1024" />

    
    <glyph glyph-name="fenxiang" unicode="&#58889;" d="M785.9968 269.1584c-54.94784 0-103.73632-26.40384-134.38464-67.22048L387.59424 334.4896a168.28416 168.28416 0 0 1 6.40512 46.13632c0 17.52576-2.68288 34.42176-7.6544 50.30912l263.01952 132.05504c30.48448-42.55232 80.31744-70.28224 136.63232-70.28224 92.78464 0 167.99744 75.264 167.99744 168.1152 0 92.84608-75.21792 168.1152-167.99744 168.1152-92.78464 0-167.99744-75.26912-167.99744-168.1152 0-6.4256 0.37376-12.75904 1.0752-18.9952L341.66272 502.54336c-30.12096 28.62592-70.84544 46.19776-115.66592 46.19776-92.78464 0-167.99744-75.264-167.99744-168.1152s75.2128-168.1152 167.99744-168.1152c46.45376 0 88.4992 18.8672 118.912 49.36192l274.64704-137.88672c-1.024-7.5008-1.56672-15.1552-1.56672-22.94272 0-92.84608 75.2128-168.1152 167.99744-168.1152s167.99744 75.264 167.99744 168.1152c0.01024 92.8512-75.19744 168.1152-167.9872 168.1152z"  horiz-adv-x="1024" />

    
    <glyph glyph-name="huangguanjin" unicode="&#58983;" d="M960.039975 639.5203v-511.6802l-443.179013-255.90406-443.051093 255.90406v511.6802L516.860962 895.29644zM292.936914 95.796127c0 34.282573-0.70356 102.97564 44.132418 106.813242 47.138538 3.773641 101.1208 12.983885 174.930668 12.983885 47.074578 0 111.034603-4.669082 175.698189-12.983885 48.673579-6.140162 47.906059-64.215865 47.906058-106.813242H292.936914zM723.515803 490.365522a51.10406 51.10406 0 0 0-12.152405 33.579013c0 29.037851 24.36877 54.238101 53.982261 54.238101 29.677452 0 54.749781-25.20025 54.749781-54.238101 0-28.206371-21.298688-51.16802-48.673579-54.877702l-82.188632-223.668207a1465.835853 1465.835853 0 0 1-175.762148 12.919925c-73.745909 0-127.66421-9.146284-174.866709-12.919925l-80.589631 224.307807c-26.60737 0-50.20862 25.20025-50.20862 54.174142 0 29.741412 25.13629 55.005621 54.749782 55.005621a55.005621 55.005621 0 0 0 53.982261-55.005621c0-8.378763-2.238601-15.990006-12.983885-32.811493l78.41499-89.288195 32.747533 158.748782c-21.298688 0.83148-42.597377 24.43273-42.597377 53.406621 0 31.980012 25.90381 58.011743 57.883823 58.011742 31.212492 0 57.755903-25.96777 57.755903-58.011742 0-17.589007-9.146284-38.184135-26.543411-46.562898l53.918301-157.277702h1.599001l51.6797 157.277702a58.843223 58.843223 0 0 0-22.897689 46.562898c0 31.980012 25.83985 58.011743 57.755903 58.011742 31.212492 0 57.883823-25.96777 57.883822-58.011742 0-27.502811-16.053966-45.859338-39.527295-53.406621l26.60737-158.748782 75.28095 88.584635z"  horiz-adv-x="1024" />

    
    <glyph glyph-name="weibo" unicode="&#59193;" d="M947.006925 397.659954c-49.704566 9.578484-25.887795 36.50179-25.887795 36.50179s48.669054 80.252163-9.578484 138.758579c-72.226947 72.485825-247.746194-9.319606-247.746194-9.319606-67.049388-20.710236-49.18681 9.578484-39.608326 61.354073 0 60.836317-20.710236 163.86974-199.336018 103.551179S93.486337 452.2832 93.486337 452.2832C-12.912499 309.90033 0.549154 199.618325 0.549154 199.618325c25.887795-243.086391 284.765741-310.653535 484.619515-325.668456 210.726648-16.568189 495.492389 72.744703 581.698745 256.548044s-70.414801 256.806923-120.378245 266.903163zM501.47798-57.447476c-209.432258-9.837362-378.479557 95.267084-378.479557 235.320053S292.045721 430.019697 501.47798 440.374815 880.734171 363.488065 880.734171 222.91734s-169.823933-270.786332-379.256191-280.364816zM459.539752 347.955388c-210.46777-25.887795-186.133243-222.376156-186.133243-222.376156a109.246493 109.246493 0 0 1 56.435392-94.49045 243.604147 243.604147 0 0 1 314.018949 56.69427c63.942853 83.099821 25.887795 284.765741-184.321098 260.172336z m-53.069978-277.25828c-39.349448-4.659803-70.932557 18.121456-70.932558 51.775589a75.333482 75.333482 0 0 0 67.567144 71.191435c45.044763 4.400925 74.556848-21.745747 74.556849-54.623246a77.663384 77.663384 0 0 0-71.191435-67.567144z m124.002536 105.88108a24.334527 24.334527 0 0 0-36.760669 3.365413 31.065354 31.065354 0 0 0 8.801851 40.126082 25.887795 25.887795 0 0 0 38.831691-3.365414 32.877499 32.877499 0 0 0-11.131751-40.126081z m517.755892 306.511488a34.171889 34.171889 0 0 1 34.171889 32.618621c25.887795 232.990152-189.498657 191.828558-189.498657 191.828558a34.689645 34.689645 0 0 1 0-69.379289c155.326768 34.171889 120.378245-120.637123 120.378245-120.637123a34.689645 34.689645 0 0 1 34.689645-34.430767zM1024.670309 887.715906a428.960757 428.960757 0 0 1-172.412712-1.553268c-1.553268 0-3.106535-1.812146-4.659803-2.071024a51.775589 51.775589 0 0 1 13.461653-99.150253 82.064309 82.064309 0 0 1 45.30364 10.872874 264.055505 264.055505 0 0 0 248.781707-123.225903 225.741569 225.741569 0 0 0 15.532676-166.976275 148.595941 148.595941 0 0 1-11.131751-49.704565 46.080274 46.080274 0 0 1 49.963443-45.303641c23.040137 0 42.455983 3.106535 48.151298 42.455983C1340.242525 727.729335 1157.733573 856.650552 1024.670309 887.715906z"  horiz-adv-x="1278" />

    
    <glyph glyph-name="shang" unicode="&#58881;" d="M67.969 333.954c0-23.955 19.441-43.396 43.396-43.396 10.773 0 20.33 4.346 27.937 10.86l0.425-0.425 2.235 2.235c0.044 0.044 0.067 0.063 0.112 0.106L500.41 661.672c6.256 6.239 16.377 6.239 22.61 0l360.685-360.679 0.658 0.659c7.647-6.685 17.356-11.093 28.3-11.093 23.935 0 43.374 19.441 43.374 43.396 0 15.289-8.389 28.084-20.355 35.812-0.724 1.344-0.576 2.983-1.705 4.112L523.019 784.827c-6.234 6.244-16.354 6.244-22.61 0L89.459 373.878c-1.279-1.279-1.172-3.108-1.916-4.641-11.522-7.794-19.571-20.336-19.571-35.283zM67.969 21.884c0-23.955 19.441-43.394 43.396-43.394 10.773 0 20.33 4.342 27.937 10.855l0.425-0.425 2.235 2.235c0.044 0.045 0.067 0.065 0.112 0.109L500.41 349.603c6.256 6.239 16.377 6.239 22.61 0l360.685-360.684 0.658 0.66c7.647-6.685 17.356-11.091 28.3-11.091 23.935 0 43.374 19.439 43.374 43.394 0 15.289-8.389 28.087-20.355 35.815-0.724 1.341-0.576 2.98-1.705 4.109L523.019 472.757c-6.234 6.239-16.354 6.239-22.61 0L89.459 61.804c-1.279-1.277-1.172-3.107-1.916-4.641-11.522-7.794-19.571-20.334-19.571-35.282z"  horiz-adv-x="1024" />

    
    <glyph glyph-name="fabiao" unicode="&#59105;" d="M959.138909 831.069091c-86.597818 86.551273-227.374545 86.551273-313.902545 0L11.729455 197.585455c-7.447273-7.400727-11.636364-17.594182-11.706182-27.997091v-257.605819A39.982545 39.982545 0 0 1 40.005818-128h257.303273c10.426182 0 20.736 4.142545 28.299636 11.729455 20.642909 20.596364 623.197091 623.220364 633.530182 633.460363 86.504727 86.574545 86.504727 227.351273 0 313.879273zM80.011636-47.988364v120.738909l120.762182-120.738909H80.011636z m217.297455 16.570182L96.581818 169.309091 596.456727 669.137455l72.052364-72.075637-268.660364-268.613818a40.098909 40.098909 0 0 1 0-56.645818c15.616-15.592727 40.96-15.592727 56.576 0l268.660364 268.660363 72.052364-72.075636L297.309091-31.418182z m605.230545 605.230546l-48.826181-48.849455-200.727273 200.750546 48.826182 48.802909a142.103273 142.103273 0 0 0 200.727272 0 142.103273 142.103273 0 0 0 0-200.704z"  horiz-adv-x="1024" />

    
    <glyph glyph-name="QQ" unicode="&#58902;" d="M825.3 211s-22.1-61.4-63.4-116.8c0 0 73.5-25.2 67.4-90.1 0 0 2.5-73-157-67.9 0 0-112.2 8.6-145.4 56.4h-29.7c-33.7-47.8-145.4-56.4-145.4-56.4-160-5-157 67.9-157 67.9-6 64.9 67.4 90.1 67.4 90.1-41.3 55.4-63.5 116.8-63.5 116.8-99.6-161.5-89.6 22.6-89.6 22.6 18.1 109.2 96.6 180.7 96.6 180.7-11.1 99.1 29.7 116.8 29.7 116.8C244 837.6 506.2 832 511.7 832S779.4 837.5 788 531c0 0 41.3-17.6 29.7-116.8 0 0 78.5-71.5 97.1-180.7 0.1 0.2 10.1-184-89.5-22.5z"  horiz-adv-x="1024" />

    
    <glyph glyph-name="guanliyuan" unicode="&#58890;" d="M65.727206 699.565281m-65.727206 0a65.727206 65.727206 0 1 1 131.454413 0 65.727206 65.727206 0 1 1-131.454413 0ZM522.830051 830.272794m-65.727206 0a65.727206 65.727206 0 1 1 131.454412 0 65.727206 65.727206 0 1 1-131.454412 0ZM814.86798 86.360321H230.792123L156.102115 522.549964l165.811816-149.380015a23.153902 23.153902 0 0 1 22.407003-6.722101 41.079504 41.079504 0 0 1 20.166302 12.697302L522.830051 638.319475l156.849015-256.186725a29.876003 29.876003 0 0 1 20.913202-12.697301 37.345004 37.345004 0 0 1 20.913202 3.7345l165.811817 149.380015z m129.213712 541.502553a29.129103 29.129103 0 0 1-32.863603 0L709.555069 447.859956 545.983953 710.768782a32.116703 32.116703 0 0 1-48.548504 0L336.105033 444.125456 133.695113 624.128373a34.357403 34.357403 0 0 1-17.925602 5.975201 38.838804 38.838804 0 0 1-14.191101-4.4814 31.369803 31.369803 0 0 1-14.191101-28.382203l91.121808-544.490153a29.876003 29.876003 0 0 1 28.382203-25.394603h631.877462a29.876003 29.876003 0 0 1 28.382203 25.394603L958.272794 597.239971a29.129103 29.129103 0 0 1-14.191102 30.622903zM980.679796 699.565281m-65.727207 0a65.727206 65.727206 0 1 1 131.454413 0 65.727206 65.727206 0 1 1-131.454413 0ZM842.503282-62.272794H203.15682a32.863603 32.863603 0 0 1 0-65.727206h639.346462a32.863603 32.863603 0 0 1 0 65.727206z"  horiz-adv-x="1046" />

    
    <glyph glyph-name="weixin" unicode="&#58898;" d="M271.36 522.24c-25.6 0-51.2 15.36-51.2 40.96s25.6 40.96 51.2 40.96 40.96-15.36 40.96-40.96-15.36-40.96-40.96-40.96m230.4 0c-25.6 0-51.2 15.36-51.2 40.96s25.6 40.96 51.2 40.96 40.96-15.36 40.96-40.96-20.48-40.96-40.96-40.96m102.4-220.16c-15.36 0-30.72 15.36-30.72 30.72s15.36 30.72 30.72 30.72c25.6 0 40.96-15.36 40.96-30.72s-15.36-30.72-40.96-30.72m179.2 0c-15.36 0-30.72 15.36-30.72 30.72s15.36 30.72 30.72 30.72c25.6 0 40.96-15.36 40.96-30.72s-15.36-30.72-40.96-30.72m-87.04 194.56c-153.6 0-276.48-107.52-276.48-235.52 0-133.12 122.88-235.52 276.48-235.52 30.72 0 66.56 10.24 97.28 15.36l87.04-51.2-25.6 81.92c66.56 51.2 112.64 112.64 112.64 189.44 5.12 128-122.88 235.52-271.36 235.52M378.88 742.4C199.68 742.4 51.2 619.52 51.2 465.92c0-92.16 51.2-163.84 128-220.16l-30.72-97.28 112.64 56.32c40.96-10.24 71.68-15.36 112.64-15.36h30.72c-5.12 20.48-10.24 46.08-10.24 66.56 0 143.36 122.88 261.12 276.48 261.12h30.72C675.84 645.12 537.6 742.4 378.88 742.4"  horiz-adv-x="1024" />

    
    <glyph glyph-name="guanliyuan1" unicode="&#59300;" d="M511 832C263.6 832 63 631.4 63 384s200.6-448 448-448 448 200.6 448 448S758.4 832 511 832z m170.5-704.8c-1.3-0.1-2.6-0.2-3.9-0.2H343.5c-12.3-0.3-23.3 7.4-27.1 19.1-3.8 11.5-0.3 24.4 9.9 31 5.5 3.5 11.9 5.5 18.4 5.7 55.4 0.3 110.7 0 166 0h166.9c14.9 0 26.8-10.5 28.4-24.7 1.8-15.3-9.2-29.1-24.5-30.9z m127.3 354.6c-6-19.2-18.4-30.4-39.6-30.6-0.8-2.2-1.6-4.4-2.2-6.6l-62.1-213c-2.7-9.3-6-11.7-15.3-11.7H332.3c-10.1 0-13.1 2.3-15.8 11.7-17 57.6-33.6 115.4-50.5 172.9-4.5 15.6-9.2 31.2-13.7 46.8-15.8 0-27.8 6.3-35.3 19.9-1.7 3.4-2.9 7.1-4.3 10.6-0.1 4.5-0.1 8.7-0.1 12.9l1.9 5.4c4.8 14.6 18 24.8 33.4 25.6 14.8 0.7 28.6-7.3 35.3-20.4 6.8-13.4 4.9-29.5-5-40.9-1.2-1.3-2.3-2.6-3.6-4.1 27.6-16.9 55.1-33.6 82.5-50.5 10.4-6.4 20.9-12.9 31.2-19.1 6-3.5 10.5-2.4 13.8 3.4l94.7 172.8c-13.7 7-22.6 17.6-23.4 33.4-0.7 10.6 3.4 21 11.2 28.3 14.8 14.3 38.5 13.9 52.8-0.9 0.7-0.7 1.3-1.4 2-2.2 15.7-19.2 10.1-41.8-14.9-58.8 8.1-14.9 16.4-29.8 24.6-44.7 22.9-41.6 45.6-83.2 68.5-124.8 5.3-9.6 8.6-10.5 18-4.9 35.4 21.5 70.7 43.3 106.1 64.9l5.1 3.2c-7.3 7.3-11.9 15.6-12.5 25.8-1.2 18.8 11.9 35.5 30.4 38.8 18.8 3.6 37.2-7.7 42.6-26.1 0.4-1.4 1-2.9 1.5-4.3v-12.8z"  horiz-adv-x="1024" />

    
    <glyph glyph-name="comment" unicode="&#58899;" d="M374.6304 91.13599999999997a405.1456 405.1456 0 0 1 230.0416-69.632 420.5056 420.5056 0 0 1 87.04 9.4208l114.8416-76.3392v118.7328c101.0688 56.9856 167.9872 155.3408 167.9872 267.3664 0 70.8608-26.88 136.0896-72.2432 189.0304l-7.8336 73.8304c79.616-66.304 129.536-159.6928 129.536-263.5264 0-116.48-62.7712-219.904-160-286.72V-128l-179.2 110.4384a476.416 476.416 0 0 0-76.8-6.4512c-123.2384 0-233.5744 47.1552-309.76 121.6512z m41.3696 76.8a476.416 476.416 0 0 0-76.8 6.4512l-179.2-110.4384v181.504C62.7712 312.32000000000005 0 415.5392 0 532.0192 0 733.0304 186.2656 896 416 896s416-162.9696 416-363.9808-186.2656-364.032-416-364.032z m0 680.96c-204.288 0-369.6128-142.9504-369.6128-319.232 0-111.9744 67.2256-210.2784 167.9872-267.3152V143.36l49.408 32.6656 65.4848 43.6736a423.8848 423.8848 0 0 1 87.04-9.2672c204.288 0 369.6128 142.8992 369.6128 319.1808S620.1344 848.7936 416 848.7936z m208.0256-368.64a48.0256 48.0256 0 1 0 47.9744 48.0768 48.0768 48.0768 0 0 0-47.9744-48.3328z m-192 0a48.0256 48.0256 0 1 0 47.9744 48.0768 48.0768 48.0768 0 0 0-47.9744-48.3328z m-192 0a48.0256 48.0256 0 1 0 47.9744 48.0768 48.0768 48.0768 0 0 0-47.9744-48.3328z"  horiz-adv-x="1024" />

    
    <glyph glyph-name="anniu-copy" unicode="&#58663;" d="M835.99999999 384L328 892 244 808l424.00000001-424L244-40l84-84 424 424.00000001z"  horiz-adv-x="1024" />

    
    <glyph glyph-name="laba" unicode="&#58997;" d="M839.424 75.008c-9.216 0-17.152 6.144-19.456 14.848-2.304 8.704 1.28 18.176 9.216 22.784 46.336 27.136 84.992 65.792 112.128 111.872 27.904 47.872 42.752 102.144 42.752 157.696 0 55.04-14.592 109.056-41.984 156.416-26.624 46.08-64.768 84.48-110.592 111.872-9.472 5.632-12.8 18.176-6.912 27.648 5.632 9.728 18.176 12.8 27.648 6.912 51.712-30.976 94.464-74.24 124.928-126.208 30.976-53.76 47.36-114.688 47.36-176.64 0-62.72-16.64-124.16-48.128-178.176-30.72-52.224-74.24-95.744-126.72-126.464-3.072-1.792-6.656-2.56-10.24-2.56z m-106.752 130.816c-9.216 0-17.152 6.144-19.456 14.848-2.304 8.704 1.28 18.176 9.472 22.784 23.808 13.824 43.52 33.792 57.6 57.6 14.336 24.576 22.016 52.48 21.76 80.896 0 28.16-7.424 56.064-21.504 80.128-13.824 23.552-33.28 43.264-56.576 57.344-9.472 5.888-12.288 18.176-6.656 27.648 5.632 9.472 17.92 12.8 27.392 7.168 29.44-17.408 53.76-42.24 70.912-71.68 17.664-30.464 26.88-65.28 26.88-100.608 0-35.584-9.472-70.4-27.392-101.376a201.7792 201.7792 0 0 0-71.936-71.936c-3.328-1.792-6.912-2.816-10.496-2.816zM254.208 140.544c-2.048 1.28-52.992 33.792-110.08 33.024h-0.256C71.936 173.568 11.008 227.584 2.048 299.52v0.512l-1.536 16.128v130.56l1.792 16.64c8.96 71.68 69.888 125.952 141.824 125.952h1.024c0.512 0 65.536-3.072 109.568 33.024l0.768 0.512L496.64 803.328c9.728 7.424 20.224 13.824 31.232 18.944 26.112 12.288 50.432 13.824 69.888 5.12 9.984-4.352 20.224-10.496 28.16-23.296 7.936-12.544 12.288-29.952 13.824-54.272v-736.256c-0.768-32-4.608-66.816-41.984-79.616-7.168-2.304-14.592-3.328-22.272-3.328-36.608 0-72.96 24.832-78.08 28.416L458.24-13.568l-204.032 154.112z m220.16-105.472l37.376-26.112c9.728-6.912 42.24-25.344 60.928-18.944 6.656 2.304 13.312 4.352 14.08 40.192V732.16c-2.048 33.536-9.216 36.864-17.408 40.448-17.664 7.936-47.616-11.008-56.832-18.176l-0.512-0.256-230.4-172.544c-51.968-42.24-122.624-40.448-130.56-40.192-49.152-0.256-90.624-37.376-96.768-86.272l-1.28-13.312v-121.088l1.28-13.312c6.144-49.152 47.872-86.272 97.024-86.272h2.304c66.816 0 122.624-36.608 124.928-38.144l195.84-147.968z m0 0"  horiz-adv-x="1024" />

    
    <glyph glyph-name="wangshenicon_huoquyanzhengma" unicode="&#58884;" d="M954.368 398.336h112.64v24.576h-116.736c0 32.768 2.048 61.44 2.048 83.968h-26.624c0-20.48 0-49.152-2.048-83.968H819.2v-24.576h102.4c-8.192-75.776-45.056-141.312-112.64-196.608l16.384-20.48c59.392 49.152 98.304 106.496 114.688 178.176 18.432-71.68 59.392-131.072 118.784-176.128l18.432 20.48c-61.44 45.056-104.448 110.592-122.88 194.56zM811.008 498.688l-22.528 14.336c-14.336-20.48-30.72-36.864-47.104-53.248-16.384 20.48-34.816 36.864-57.344 51.2l-20.48-16.384c22.528-12.288 43.008-30.72 57.344-51.2-24.576-18.432-51.2-34.816-81.92-47.104l14.336-22.528c30.72 14.336 59.392 30.72 81.92 49.152 8.192-14.336 16.384-32.768 20.48-51.2-26.624-30.72-63.488-59.392-110.592-81.92l14.336-22.528c38.912 20.48 73.728 45.056 100.352 73.728 2.048-16.384 4.096-32.768 4.096-51.2 0-34.816-4.096-57.344-10.24-69.632-6.144-8.192-14.336-12.288-28.672-12.288-16.384 0-32.768 0-49.152 2.048l8.192-24.576h47.104c16.384 0 30.72 6.144 38.912 14.336 12.288 16.384 18.432 47.104 18.432 88.064 0 59.392-12.288 110.592-36.864 149.504 22.528 16.384 40.96 36.864 59.392 61.44zM980.992 506.88c24.576-24.576 45.056-47.104 61.44-65.536l20.48 14.336c-14.336 18.432-34.816 38.912-61.44 63.488l-20.48-12.288zM763.904 527.36h26.624v36.864h139.264V527.36h26.624v36.864h118.784v26.624h-118.784v40.96h-26.624v-40.96h-139.264v40.96h-26.624v-40.96h-118.784v-26.624h118.784zM1554.432 558.08v24.576h-184.32v-24.576h20.48c6.144-86.016 28.672-163.84 67.584-233.472-26.624-47.104-61.44-86.016-102.4-118.784l16.384-20.48c38.912 30.72 71.68 67.584 100.352 112.64 24.576-40.96 53.248-77.824 88.064-112.64l18.432 20.48c-36.864 34.816-67.584 73.728-92.16 116.736 34.816 63.488 57.344 141.312 67.584 235.52z m-83.968-210.944c-30.72 63.488-51.2 133.12-57.344 208.896h116.736c-10.24-79.872-28.672-149.504-59.392-208.896zM1374.208 310.272l-47.104-12.288V582.656h40.96v24.576H1134.592v-24.576h40.96v-313.344c-14.336-2.048-30.72-4.096-47.104-6.144l6.144-26.624c57.344 8.192 110.592 18.432 163.84 30.72v-86.016h26.624v92.16l47.104 12.288v24.576z m-73.728-18.432c-30.72-6.144-63.488-12.288-96.256-18.432v92.16h96.256v-73.728z m0 100.352h-96.256v81.92h96.256v-81.92z m0 106.496h-96.256v83.968h96.256v-83.968zM1929.216 283.648l22.528 6.144c-10.24 51.2-22.528 96.256-36.864 135.168l-22.528-8.192c14.336-43.008 26.624-86.016 36.864-133.12zM1816.576 402.432c18.432-45.056 32.768-92.16 43.008-139.264l22.528 6.144c-12.288 53.248-26.624 100.352-43.008 141.312l-22.528-8.192zM2039.808 418.816l-26.624 6.144c-14.336-79.872-32.768-147.456-53.248-200.704h-161.792V199.68h266.24v24.576H1986.56c20.48 57.344 38.912 120.832 53.248 194.56zM1939.456 627.712h-24.576c-30.72-69.632-73.728-126.976-129.024-169.984l14.336-20.48c51.2 38.912 94.208 94.208 126.976 165.888 28.672-65.536 71.68-120.832 129.024-163.84l14.336 22.528c-61.44 45.056-104.448 100.352-131.072 165.888zM1773.568 605.184h-147.456v-24.576h120.832l-22.528-178.176H1658.88l20.48 139.264-24.576 2.048-22.528-165.888h124.928c0-79.872-2.048-126.976-8.192-143.36-6.144-16.384-20.48-24.576-45.056-24.576-6.144 0-18.432 0-36.864 2.048l8.192-24.576h34.816c28.672 0 49.152 8.192 59.392 24.576 8.192 16.384 14.336 79.872 14.336 188.416h-32.768l22.528 204.8zM1726.464 326.656c-32.768-12.288-69.632-22.528-112.64-28.672l4.096-24.576c40.96 8.192 77.824 18.432 110.592 30.72v22.528zM1861.632 484.352h135.168v-24.576h-135.168zM2230.272 527.36l18.432 18.432c-22.528 26.624-49.152 51.2-83.968 77.824l-18.432-18.432c36.864-26.624 63.488-53.248 83.968-77.824zM2445.312 406.528h100.352v24.576h-100.352v147.456h106.496v24.576h-274.432v-24.576h141.312v-354.304h-77.824v266.24h-24.576v-266.24h-53.248V199.68h299.008v24.576h-116.736zM2269.184 308.224c-20.48-20.48-38.912-36.864-57.344-53.248V476.16h-100.352v-26.624h73.728v-202.752c0-6.144-2.048-12.288-8.192-16.384l10.24-24.576c30.72 22.528 61.44 47.104 88.064 73.728l-6.144 28.672zM3008.512 607.232h-206.848v-24.576h176.128l-26.624-167.936h-112.64l22.528 126.976-26.624 2.048-26.624-155.648h196.608c0-83.968-4.096-135.168-12.288-151.552-8.192-16.384-30.72-24.576-67.584-24.576-8.192 0-24.576 0-47.104 2.048l8.192-24.576c16.384 0 30.72-2.048 45.056-2.048 40.96 0 67.584 8.192 79.872 26.624 12.288 18.432 18.432 86.016 18.432 200.704h-53.248l32.768 192.512zM2613.248 574.464h65.536c-12.288-77.824-38.912-147.456-79.872-204.8l14.336-22.528c14.336 20.48 26.624 43.008 38.912 65.536V199.68h24.576v38.912h61.44v-30.72h24.576V455.68h-92.16c14.336 36.864 24.576 75.776 30.72 118.784h75.776v24.576h-165.888v-24.576z m63.488-143.36h61.44v-167.936h-61.44v167.936zM2791.424 316.416h176.128v-24.576h-176.128zM3174.4 896H512C229.376 896 0 666.624 0 384s229.376-512 512-512h2662.4c282.624 0 512 229.376 512 512S3457.024 896 3174.4 896z m0-1003.52H512C241.664-107.52 20.48 113.664 20.48 384S241.664 875.52 512 875.52h2662.4c270.336 0 491.52-221.184 491.52-491.52s-221.184-491.52-491.52-491.52z"  horiz-adv-x="3686" />

    
    <glyph glyph-name="zhanghao" unicode="&#58956;" d="M512.00016 0c-84.384 0-165.248 23.424-235.104 66.56l-21.12-91.36A32 32 0 0 1 287.00816-64h447.808a32 32 0 0 1 31.2 39.2l-20.832 90.176A446.112 446.112 0 0 0 512.00016 0z m289.44 106.048l26.88-116.448A96 96 0 0 0 734.78416-128H286.97616a96 96 0 0 0-93.536 117.6l27.264 118.016A447.008 447.008 0 0 0 64.00016 448C64.00016 695.424 264.57616 896 512.00016 896s448-200.576 448-448a447.04 447.04 0 0 0-158.56-341.952zM512.00016 64c212.064 0 384 171.936 384 384S724.06416 832 512.00016 832 128.00016 660.064 128.00016 448s171.936-384 384-384z m-183.392 170.176a32 32 0 1 0 46.784 43.648C406.43216 244.544 456.76816 224 512.00016 224s105.536 20.544 136.608 53.824a32 32 0 1 0 46.784-43.648C651.87216 187.52 584.51216 160 512.00016 160s-139.84 27.52-183.392 74.176z"  horiz-adv-x="1024" />

    
    <glyph glyph-name="yonghu" unicode="&#58912;" d="M263.876923 569.107692c0-137.846154 110.276923-248.123077 248.123077-248.123077s248.123077 110.276923 248.123077 248.123077S649.846154 817.230769 512 817.230769 263.876923 706.953846 263.876923 569.107692zM752.246154 324.923077c-19.692308 15.753846-47.261538 15.753846-66.953846-3.938462-43.323077-43.323077-106.338462-70.892308-173.292308-70.892307s-129.969231 27.569231-173.292308 70.892307c-19.692308 19.692308-47.261538 19.692308-66.953846 3.938462-74.830769-63.015385-129.969231-145.723077-149.661538-259.938462-7.876923-47.261538 23.630769-82.707692 70.892307-82.707692h638.03077c47.261538 0 78.769231 39.384615 70.892307 82.707692-15.753846 110.276923-70.892308 192.984615-149.661538 259.938462z"  horiz-adv-x="1024" />

    
    <glyph glyph-name="tubiao-fankui" unicode="&#58982;" d="M916.20908-128H107.789303a107.789303 107.789303 0 0 0-107.789303 107.789303V788.20908a107.789303 107.789303 0 0 0 107.789303 107.789303h555.842491a31.932581 31.932581 0 0 0 31.932581-31.959528v-16.922921A31.932581 31.932581 0 0 0 663.631794 815.156406H107.789303a26.947326 26.947326 0 0 1-26.947325-26.947326v-808.419777a26.947326 26.947326 0 0 1 26.947325-26.947325h808.419777a26.947326 26.947326 0 0 1 26.947326 26.947325V566.755956A32.821843 32.821843 0 0 0 975.978248 599.577799h15.198292A32.821843 32.821843 0 0 0 1023.998383 566.755956V-20.210697a107.789303 107.789303 0 0 0-107.789303-107.789303z m-167.908788 350.315236A33.172158 33.172158 0 0 0 781.47245 189.143078v-14.497661A33.172158 33.172158 0 0 0 748.300292 141.473259H275.698091A33.172158 33.172158 0 0 0 242.525933 174.645417v14.497661A33.172158 33.172158 0 0 0 275.698091 222.315236h472.602201zM276.075354 572.630473A33.576368 33.576368 0 0 0 242.525933 606.179893v13.743137A33.576368 33.576368 0 0 0 276.075354 653.47245h202.374417A33.576368 33.576368 0 0 0 511.999192 619.92303v-13.743137A33.576368 33.576368 0 0 0 478.449771 572.630473h-202.374417zM781.47245 404.344423v-13.743137A33.522473 33.522473 0 0 0 747.92303 357.051866h-471.847676A33.522473 33.522473 0 0 0 242.525933 390.601286v13.743137A33.522473 33.522473 0 0 0 276.075354 437.893843h471.847676A33.522473 33.522473 0 0 0 781.47245 404.344423z m-10.77893 208.195039a41.175514 41.175514 0 0 0-58.314013 58.15233L926.206538 883.899034a41.175514 41.175514 0 1 0 58.34096-58.125382z"  horiz-adv-x="1024" />

    
    <glyph glyph-name="bottom" unicode="&#58667;" d="M543.9 163.39999999999998c0.8 0.59999999 1.7 1.4 2.5 2.1L941.3 526c21.5 19.60000001 23 52.9 3.4 74.4-19.60000001 21.5-52.9 23-74.40000001 3.4l-359.79999999-328.3-358.8 328.6c-21.4 19.6-54.7 18.2-74.4-3.3-19.6-21.4-18.2-54.7 3.30000001-74.4L474.9 165.29999999999995c19.6-18 49.1-18.3 69-1.9z"  horiz-adv-x="1024" />

    
    <glyph glyph-name="mima-copy" unicode="&#58910;" d="M402.77333333 413.60042667c-114.46954667-37.35552-196.608-138.39018667-196.608-257.17418667 0-150.62357333 132.27349333-273.06666667 294.96661334-273.06666667 162.74773333 0 294.912 122.44309333 294.912 273.06666667 0 118.784-82.08384 219.81866667-196.608 257.17418667V611.57376h196.608V793.6h-196.608V884.64042667h-196.608v-471.04z m196.66261334-257.17418667c0-50.02581333-44.2368-90.98581333-98.304-90.98581333s-98.304 40.96-98.304 90.98581333c0 50.08042667 44.2368 91.04042667 98.304 91.04042667s98.304-40.96 98.304-91.04042667z"  horiz-adv-x="1024" />

    
    <glyph glyph-name="biaoqing" unicode="&#58888;" d="M512-128c-137.309091 0-265.309091 53.527273-363.054545 148.945455C53.527273 118.69090900000003 0 246.69090900000003 0 384S53.527273 649.309091 148.945455 747.054545C246.690909 842.472727 374.690909 896 512 896s265.309091-53.527273 363.054545-148.945455c200.145455-200.145455 200.145455-523.636364 0-723.781818C777.309091-74.47272699999996 649.309091-128 512-128m0 956.509091c-118.690909 0-230.4-46.545455-314.181818-130.327273-83.781818-83.781818-130.327273-195.490909-130.327273-314.181818s46.545455-230.4 130.327273-314.181818c83.781818-83.781818 195.490909-130.327273 314.181818-130.327273s230.4 46.545455 314.181818 130.327273C1000.727273 244.36363600000004 1000.727273 525.963636 826.181818 700.509091 742.4 781.963636 630.690909 828.509091 512 828.509091M330.472727 244.36363600000004s60.509091-95.418182 181.527273-95.418181c121.018182 0 202.472727 95.418182 202.472727 95.418181s44.218182 0 44.218182-48.872727c0 0-79.127273-111.709091-246.690909-111.709091-167.563636 0-223.418182 111.709091-223.418182 111.709091s-2.327273 48.872727 41.890909 48.872727m32.581818 304.872728c-34.909091 0-62.836364-27.927273-62.836363-62.836364 0-34.909091 27.927273-62.836364 62.836363-62.836364 34.909091 0 62.836364 27.927273 62.836364 62.836364 0 34.909091-27.927273 62.836364-62.836364 62.836364m321.163637 0c-34.909091 0-62.836364-27.927273-62.836364-62.836364 0-34.909091 27.927273-62.836364 62.836364-62.836364 34.909091 0 62.836364 27.927273 62.836363 62.836364 0 34.909091-27.927273 62.836364-62.836363 62.836364m0 0z"  horiz-adv-x="1025" />

    
    <glyph glyph-name="daosanjiao" unicode="&#58891;" d="M156.918434 896L512 507.800553 867.128536 896z"  horiz-adv-x="1024" />

    
    <glyph glyph-name="guanbi" unicode="&#58636;" d="M574.55 373.65L904.4 703.5c16.65 16.65 16.65 44.1 0 60.75l-1.8 1.8c-16.65 16.65-44.1 16.65-60.75 0L512 435.75 182.15 766.05c-16.65 16.65-44.1 16.65-60.75 0l-1.8-1.8c-17.1-16.65-17.1-44.1 0-60.75l329.85-329.85L119.6 43.799999999999955c-16.65-16.65-16.65-44.1 0-60.75l1.8-1.8c16.65-16.65 44.1-16.65 60.75 0L512 311.1 841.85-18.75c16.65-16.65 44.1-16.65 60.75 0l1.8 1.8c16.65 16.65 16.65 44.1 0 60.75L574.55 373.65z"  horiz-adv-x="1024" />

    
    <glyph glyph-name="zanpress" unicode="&#58629;" d="M905.6 550.36875c-37.44 9.79125-125.4721875 9.6-254.304375 13.055625 6.144375 28.1278125 7.48875 53.47125 7.48875 98.4C658.88 769.344375 580.544375 864 511.23125 864c-48.9590625 0-89.2790625-40.03125-89.855625-89.184375-0.67125-60.2878125-19.2-164.446875-119.8078125-217.3434375-7.3921875-3.84-28.415625-14.2078125-31.4878125-15.6478125l1.535625-1.344375a95.04 95.04 0 0 1-59.9034375 24H121.855625A89.9521875 89.9521875 0 0 1 32 474.624375V-4.7999999999999545c0-49.535625 40.32-89.855625 89.855625-89.855625h89.8565625a88.8 88.8 0 0 1 79.9678125 51.7434375l1.344375-0.384375 7.2-1.9190625c0.48 0 0.7678125-0.0965625 1.3434375-0.28875 17.28-4.32 50.4965625-12.19125 121.44-28.51125 15.36-3.4565625 95.615625-20.64 178.944375-20.64h163.775625c49.92 0 86.88 18.6234375 107.2321875 57.79125 19.96875 34.753125 117.695625 221.28 117.6 484.224375 0 37.824375-26.2078125 86.1121875-84.96 102.9121875zM241.664375-4.7999999999999545c0-16.5121875-13.44-29.9521875-29.953125-29.9521875H121.8565625a29.9521875 29.9521875 0 0 0-29.95125 29.9521875V474.624375c0 16.51125 13.44 29.95125 29.95125 29.95125h89.8565625c16.6078125 0 29.9521875-13.44 29.9521875-29.95125V-4.7999999999999545zM929.984375 428.544375c-12.48-300.96-109.824375-437.184375-109.824375-437.184375-9.12-16.32-23.615625-26.1121875-54.5278125-26.1121875H601.9521875c-82.2721875 0-163.8721875 18.624375-165.984375 19.2-124.415625 28.6078125-130.9434375 30.815625-138.72 33.024375l4.32 440.16c0 45.5034375 0.96 33.984375 0 33.4078125C438.464375 547.6800000000001 480.1278125 672 481.28 774.0478125A30.0478125 30.0478125 0 0 0 511.2321875 804c31.68 0 87.6478125-63.5521875 87.6478125-142.2721875 0-71.04-2.88-83.23125-27.744375-157.2478125 299.52 0 297.504375-4.32 323.904375-11.23125 32.83125-9.40875 35.52-36.4809375 35.52-45.88875 0-10.2721875-0.1921875-8.83125-0.575625-18.815625z"  horiz-adv-x="1024" />

    
    <glyph glyph-name="tupian" unicode="&#58900;" d="M939.7 704v-640H86.3V704h853.4m0 85.3H86.3C39.2 789.3 1 751.1 1 704v-640c0-47.1 38.2-85.3 85.3-85.3h853.3c47.1 0 85.3 38.2 85.3 85.3V704c0.1 47.1-38.1 85.3-85.2 85.3zM747.7 554.7h-0.1 0.1m0 85.3c-47.1 0-85.3-38.2-85.3-85.3s38.2-85.3 85.3-85.3 85.3 38.2 85.3 85.3-38.2 85.3-85.3 85.3zM86.3 42.7c-2.5 0-5.1 0.4-7.6 1.4-11 4.2-16.5 16.5-12.3 27.5 18 47.3 179.9 461.7 318.6 461.7 12 0 114.9-7.5 200.3-255.3 25.4 27.9 64.2 63.3 98.4 63.3 10.6 0 104.7-7.7 149-273.8 1.9-11.6-5.9-22.6-17.5-24.6-11.7-2-22.6 5.9-24.6 17.5-37.4 224.2-106.3 238.2-107 238.2-19.7 0-61.9-39.9-89.6-76.8-4.8-6.4-12.8-9.6-20.7-8.2-7.9 1.4-14.4 7.1-16.7 14.7-77.2 251-170.7 262.3-171.6 262.3-82.5 0-214.8-266.4-278.7-434.3-3.3-8.4-11.4-13.6-20-13.6z"  horiz-adv-x="1024" />

    


  </font>
</defs>
</svg>
