<?xml version="1.0" standalone="no"?><!DOCTYPE svg PUBLIC "-//W3C//DTD SVG 1.1//EN" "http://www.w3.org/Graphics/SVG/1.1/DTD/svg11.dtd"><svg class="icon" width="64px" height="64.00px" viewBox="0 0 1024 1024" version="1.1" xmlns="http://www.w3.org/2000/svg"><path fill="#cdcdcd" d="M968.988594 863.206874l-336.787466-1.417279L989.509976 511.230474c20.888749-20.888749 20.888749-54.885028 0-75.794244L651.519102 97.463776c-20.889773-20.907169-54.886051-20.888749-75.774801 0L46.859749 626.309442c-20.869307 20.908192-20.888749 54.904471 0 75.792197l163.540703 163.489538-155.391093-2.384303c-21.919219 0-39.675628 17.758456-39.675628 39.674605l0-2.986007c0 21.917172 17.757432 39.674605 39.675628 39.674605l913.979234 0c21.901823 0 39.676651-17.758456 39.676651-39.674605l0 2.986007C1008.665245 880.96533 990.890416 863.206874 968.988594 863.206874L968.988594 863.206874zM311.136761 900.293537l-59.884902-59.888995 0 0L79.904353 669.076478c-2.664689-2.680039-2.703575-7.039323 0-9.742898l528.84669-528.84362c2.702552-2.702552 7.05672-2.664689 9.741875 0l337.970408 337.990874c2.685155 2.705622 2.685155 7.020904 0.019443 9.704013l-362.224812 362.219695-59.882855 59.884902L311.136761 900.289444 311.136761 900.293537 311.136761 900.293537zM615.65529 187.514721c-13.944594-1.65264-26.917046 8.227382-28.687366 22.289656l-48.526203 385.366881-380.740514 42.943045c-14.101159 1.595334-24.233937 14.296611-22.639626 28.396747 1.478677 13.124925 12.603039 22.814612 25.497721 22.814612 0.953721 0 1.925862-0.037862 2.899026-0.155543l400.829038-45.201481c11.80486-1.323135 21.141506-10.56052 22.61916-22.309098l51.034327-405.438009C639.715265 202.140837 629.737006 189.285041 615.65529 187.514721L615.65529 187.514721z" /></svg>